<svg height="217.95" viewBox="0 0 274.49 217.95" width="274.49" xmlns="http://www.w3.org/2000/svg">
	<g class="nc-icon-wrapper">
		<path
			d="M230.34 81c-6.91-46.43-46.26-81-93.08-81-40.65 0-76.09 25.8-89.11 64.5C20.08 71.45 0 97.12 0 126.68c0 35.31 28.36 64 63.22 64h27.52a5.06 5.06 0 0 0 4.73-3.32L107.11 156l15.8 58.12a5 5 0 0 0 4.86 3.76h.3a5.08 5.08 0 0 0 4.7-4.33l12.91-84.88 9.67 25.41a5 5 0 0 0 4.72 3.28h19.19l8.23 29.6a5.07 5.07 0 0 0 4.86 3.73h36.23a10.07 10.07 0 0 0 8.72 5.13 10.25 10.25 0 0 0 0-20.49 10 10 0 0 0-8.71 5.13h-32.42l-8.23-29.56a5.07 5.07 0 0 0-4.86-3.73h-19.55l-15.24-40A5 5 0 0 0 143 104a5.07 5.07 0 0 0-4.45 4.31l-12.17 80.19-13.66-50.24a5 5 0 0 0-9.59-.45l-15.88 42.67h-24c-29.29 0-53.12-24.14-53.12-53.8 0-25.7 18-47.9 42.93-52.8a5.07 5.07 0 0 0 3.86-3.52c10.89-36 43.19-60.13 80.37-60.13 43 0 78.88 32.57 83.54 75.76a5.1 5.1 0 0 0 4.41 4.52c22.34 2.74 39.18 22 39.18 44.8a5 5 0 1 0 10.1 0c0-26.62-18.72-49.3-44.15-54.33"
			fill="#2ab573"></path>
	</g>
</svg>
